# xmcd CD database file
#
# Track frame offsets:
#	150
#	17909
#	28519
#	48125
#	68384
#	82898
#	94082
#	107698
#
# Disc length: 1594 seconds
#
# Revision: 0
# Processed by: cddbd v1.5.2PL0 Copyright (c) Steve Scherf et al.
# Submitted via: CDex 1.51
#
DISCID=50063808
DTITLE=post modern trio - post modern trio
DYEAR=1900
DGENRE=Jazz
TTITLE0=long tom
TTITLE1=tear rag
TTITLE2=word on the street
TTITLE3=bless you moonlight
TTITLE4=madison strut
TTITLE5=shine them shoes
TTITLE6=losin it
TTITLE7=gondol'e
EXTD=
EXTT0=
EXTT1=
EXTT2=
EXTT3=
EXTT4=
EXTT5=
EXTT6=
EXTT7=
PLAYORDER=
